<svg xmlns="http://www.w3.org/2000/svg" viewBox="0 0 24 24" fill="currentColor" class="w-full h-full text-green-700">
  <path fill-rule="evenodd" d="M11.078 2.25c-.917 0-1.699.663-1.85 1.567L9.05 4.889c-.02.12-.115.26-.297.348a7.493 7.493 0 00-.986.57c-.166.115-.334.126-.45.083L6.3 5.508a1.875 1.875 0 00-2.282.942l-.922 1.597a1.875 1.875 0 00.432 2.388l.929.802c.126.11.174.253.122.376-.114.273-.2.553-.257.84-.032.176-.165.298-.332.322l-1.06.153a1.875 1.875 0 00-1.573 1.83v1.857a1.875 1.875 0 001.57 1.83l1.063.153c.17.025.302.147.335.323.056.288.143.568.258.841.05.123.003.265-.123.376l-.929.802a1.875 1.875 0 00-.432 2.388l.922 1.597a1.875 1.875 0 002.282.942l1.019-.382c.115-.043.283-.031.45.082.312.214.641.405.985.57.182.088.277.228.297.35l.178 1.071c.151.904.933 1.567 1.85 1.567h1.844c.916 0 1.699-.663 1.85-1.567l.178-1.072c.02-.12.115-.26.297-.349a7.494 7.494 0 00.984-.569c.168-.115.335-.126.45-.083l1.019.381a1.875 1.875 0 002.282-.941l.922-1.597a1.875 1.875 0 00-.432-2.388l-.929-.802c-.126-.11-.174-.254-.122-.376.114-.273.2-.553.257-.841.032-.176.165-.298.332-.322l1.063-.153a1.875 1.875 0 001.573-1.83V12.9a1.875 1.875 0 00-1.57-1.83l-1.063-.153c-.17-.025-.302-.147-.335-.323a7.491 7.491 0 00-.258-.84c-.05-.123-.003-.266.123-.376l.929-.803a1.875 1.875 0 00.432-2.388l-.922-1.597a1.875 1.875 0 00-2.282-.942l-1.019.382c-.115.043-.283.031-.45-.082a7.49 7.49 0 00-.985-.57c-.182-.088-.277-.228-.297-.35l-.178-1.071c-.151-.904-.933-1.567-1.85-1.567H11.078zM12 15.75a3.75 3.75 0 100-7.5 3.75 3.75 0 000 7.5z" clip-rule="evenodd" />
</svg>
