<svg xmlns="http://www.w3.org/2000/svg" viewBox="0 0 24 24" fill="currentColor" class="w-full h-full text-amber-500">
  <path d="M12 2.25a.75.75 0 01.75.75v2.25a.75.75 0 01-1.5 0V3a.75.75 0 01.75-.75zM7.5 12a4.5 4.5 0 119 0 4.5 4.5 0 01-9 0zM18.894 6.166a.75.75 0 010 1.06l-1.591 1.591a.75.75 0 11-1.06-1.06l1.591-1.591a.75.75 0 011.06 0zM21.75 12a.75.75 0 01-.75.75h-2.25a.75.75 0 010-1.5H21a.75.75 0 01.75.75zM18.894 17.834a.75.75 0 01-1.06 0l-1.591-1.591a.75.75 0 111.06-1.06l1.591 1.591a.75.75 0 010 1.06zM12 21.75a.75.75 0 01-.75-.75v-2.25a.75.75 0 011.5 0V21a.75.75 0 01-.75.75zM6.166 18.894a.75.75 0 01-1.06-1.06l1.591-1.591a.75.75 0 111.06 1.06l-1.591 1.591a.75.75 0 010 1.06zM2.25 12a.75.75 0 01.75-.75h2.25a.75.75 0 010 1.5H3a.75.75 0 01-.75-.75zM6.166 6.166a.75.75 0 010 1.06L4.575 8.817a.75.75 0 01-1.06-1.06L5.106 6.166a.75.75 0 011.06 0z" />
</svg>
